Coordinates
version=1
nRows=19
nColumns=24
inDegrees=yes

Units are S.I. units (second, meters, Newtons, ...)
Angles are in degrees.

endheader
time	pelvis_tilt	pelvis_list	pelvis_rotation	pelvis_tx	pelvis_ty	pelvis_tz	hip_flexion_r	hip_adduction_r	hip_rotation_r	knee_angle_r	ankle_angle_r	subtalar_angle_r	mtp_angle_r	hip_flexion_l	hip_adduction_l	hip_rotation_l	knee_angle_l	ankle_angle_l	subtalar_angle_l	mtp_angle_l	lumbar_extension	lumbar_bending	lumbar_rotation
      0.01000000	     57.85461072	      4.05131516	     -4.04581500	      0.77537996	      1.02381492	     -0.28034345	     15.94273688	     -6.54655427	      9.52916768	     -2.69075729	     -8.90888132	    -17.33472708	    -19.20805704	      5.04247591	     -4.92568014	    -14.78238009	    -61.65419854	      2.47310543	     -7.49326354	    -42.91246120	      0.00000000	      0.00000000	      0.00000000
      0.02000000	     57.86009956	      4.05414069	     -4.05434111	      0.77535711	      1.02378890	     -0.28033191	     15.94265263	     -6.54154216	      9.52135094	     -2.69239153	     -8.90819829	    -17.33345231	    -19.23745884	      5.04032881	     -4.92070742	    -14.78118339	    -61.66188661	      2.48063717	     -7.48727754	    -42.88381829	      0.00000000	      0.00000000	      0.00000000
      0.03000000	     57.86403042	      4.05678809	     -4.06060253	      0.77534120	      1.02377966	     -0.28032491	     15.94238100	     -6.53814304	      9.51948061	     -2.69346900	     -8.91018965	    -17.32993157	    -19.26872268	      5.03795724	     -4.91823014	    -14.78243032	    -61.66655050	      2.49115868	     -7.48278978	    -42.85349934	      0.00000000	      0.00000000	      0.00000000
      0.04000000	     57.86654270	      4.05868278	     -4.06466467	      0.77533429	      1.02377863	     -0.28032556	     15.94225890	     -6.53666978	      9.52254430	     -2.69348338	     -8.91419095	    -17.32468295	    -19.30184044	      5.03567816	     -4.91770373	    -14.78467118	    -61.66893012	      2.50351377	     -7.47930615	    -42.82180602	      0.00000000	      0.00000000	      0.00000000
      0.05000000	     57.86769936	      4.05933821	     -4.06674988	      0.77533495	      1.02377706	     -0.28033236	     15.94274134	     -6.53708993	      9.52875779	     -2.69216212	     -8.91930982	    -17.31845096	    -19.33633159	      5.03386403	     -4.91847328	    -14.78649612	    -61.66984524	      2.51619980	     -7.47625525	    -42.78952487	      0.00000000	      0.00000000	      0.00000000
      0.06000000	     57.86752491	      4.05873064	     -4.06732080	      0.77533811	      1.02377395	     -0.28034042	     15.94432779	     -6.53861798	      9.53561332	     -2.68972740	     -8.92450795	    -17.31203212	    -19.37118268	      5.03291336	     -4.91986797	    -14.78711031	    -61.66992914	      2.52773331	     -7.47314526	    -42.75793511	      0.00000000	      0.00000000	      0.00000000
      0.07000000	     57.86589551	      4.05740078	     -4.06703894	      0.77533891	      1.02377527	     -0.28034752	     15.94736071	     -6.53971203	      9.54036470	     -2.68694271	     -8.92864004	    -17.30598888	    -19.40503784	      5.03315570	     -4.92121115	    -14.78652215	    -61.66952814	      2.53699436	     -7.46969562	    -42.72865061	      0.00000000	      0.00000000	      0.00000000
      0.08000000	     57.86253897	      4.05606194	     -4.06661336	      0.77533838	      1.02378295	     -0.28035525	     15.95192380	     -6.53885068	      9.54097210	     -2.68488273	     -8.93050743	    -17.30033311	    -19.43651973	      5.03472271	     -4.92199053	    -14.78529096	    -61.66876977	      2.54347886	     -7.46593162	    -42.70336291	      0.00000000	      0.00000000	      0.00000000
      0.09000000	     57.85737072	      4.05522119	     -4.06663618	      0.77534122	      1.02379164	     -0.28036640	     15.95791136	     -6.53546849	      9.53703611	     -2.68449288	     -8.92897595	    -17.29437509	    -19.46453510	      5.03756638	     -4.92219062	    -14.78404282	    -61.66772628	      2.54738958	     -7.46220152	    -42.68354984	      0.00000000	      0.00000000	      0.00000000
      0.10000000	     57.85075209	      4.05502721	     -4.06742982	      0.77534874	      1.02379756	     -0.28038030	     15.96502799	     -6.53027768	      9.53011599	     -2.68621702	     -8.92319189	    -17.28692093	    -19.48844318	      5.04155466	     -4.92230384	    -14.78312362	    -61.66661033	      2.54950100	     -7.45906711	    -42.67020615	      0.00000000	      0.00000000	      0.00000000
      0.11000000	     57.84339308	      4.05513421	     -4.06894812	      0.77535881	      1.02380226	     -0.28038754	     15.97270064	     -6.52494632	      9.52317879	     -2.68988002	     -8.91288474	    -17.27685549	    -19.50803636	      5.04648221	     -4.92287656	    -14.78253864	    -61.66586177	      2.55082472	     -7.45709239	    -42.66364392	      0.00000000	      0.00000000	      0.00000000
      0.12000000	     57.83608776	      4.05509728	     -4.07079785	      0.77536836	      1.02380597	     -0.28038139	     15.98003129	     -6.52110219	      9.51937012	     -2.69480663	     -8.89869672	    -17.26395413	    -19.52337076	      5.05206707	     -4.92410350	    -14.78203862	    -61.66600190	      2.55223233	     -7.45663737	    -42.66340202	      0.00000000	      0.00000000	      0.00000000
      0.13000000	     57.82949845	      4.05484755	     -4.07230884	      0.77537544	      1.02380446	     -0.28036878	     15.98595978	     -6.51944481	      9.52065937	     -2.70005499	     -8.88245407	    -17.24962951	    -19.53454353	      5.05798913	     -4.92576347	    -14.78124876	    -61.66736301	      2.55418570	     -7.45772756	    -42.66828578	      0.00000000	      0.00000000	      0.00000000
      0.14000000	     57.82398469	      4.05451454	     -4.07266097	      0.77538110	      1.02379531	     -0.28035942	     15.98961482	     -6.51977306	      9.52685833	     -2.70465054	     -8.86726686	    -17.23731436	    -19.54152161	      5.06391438	     -4.92743645	    -14.77981243	    -61.66990983	      2.55666025	     -7.46001920	    -42.67653109	      0.00000000	      0.00000000	      0.00000000
      0.15000000	     57.81950776	      4.05408813	     -4.07121917	      0.77538787	      1.02378401	     -0.28035557	     15.99058035	     -6.52151848	      9.53523018	     -2.70777184	     -8.85732513	    -17.23227208	    -19.54409256	      5.06956343	     -4.92892219	    -14.77749755	    -61.67322358	      2.55928831	     -7.46288165	    -42.68606201	      0.00000000	      0.00000000	      0.00000000
      0.16000000	     57.81566929	      4.05331206	     -4.06791225	      0.77539617	      1.02377867	     -0.28035561	     15.98896757	     -6.52404465	      9.54077939	     -2.70885955	     -8.85731376	    -17.24075655	    -19.54195732	      5.07477684	     -4.93044803	    -14.77433067	    -61.67666816	      2.56162099	     -7.46556243	    -42.69479349	      0.00000000	      0.00000000	      0.00000000
      0.17000000	     57.81191376	      4.05182412	     -4.06333233	      0.77540509	      1.02378024	     -0.28035855	     15.98543689	     -6.52645059	      9.53724822	     -2.70761516	     -8.87148681	    -17.26860262	    -19.53494102	      5.07943457	     -4.93237874	    -14.77079789	    -61.67968676	      2.56335562	     -7.46736026	    -42.70093067	      0.00000000	      0.00000000	      0.00000000
      0.18000000	     57.80789788	      4.04952766	     -4.05855448	      0.77541552	      1.02378279	     -0.28036165	     15.98123495	     -6.52725000	      9.51876926	     -2.70395017	     -8.90256758	    -17.31949444	    -19.52326947	      5.08331760	     -4.93478541	    -14.76793526	    -61.68201250	      2.56444527	     -7.46775918	    -42.70322642	      0.00000000	      0.00000000	      0.00000000
      0.19000000	     57.80387710	      4.04698418	     -4.05479599	      0.77542836	      1.02378189	     -0.28036009	     15.97811325	     -6.52443490	      9.48194976	     -2.69800018	     -8.95073406	    -17.39330275	    -19.50783240	      5.08610336	     -4.93730906	    -14.76710821	    -61.68366347	      2.56506927	     -7.46650636	    -42.70116755	      0.00000000	      0.00000000	      0.00000000
